<?xml version="1.0" encoding="UTF-8" standalone="no"?>
<!DOCTYPE svg PUBLIC "-//W3C//DTD SVG 1.1//EN"
 "http://www.w3.org/Graphics/SVG/1.1/DTD/svg11.dtd">
<!-- Generated by graphviz version 2.47.0 (20210316.0004)
 -->
<!-- Title: dependencies Pages: 1 -->
<svg width="1766pt" height="366pt"
 viewBox="0.00 0.00 1766.00 366.00" xmlns="http://www.w3.org/2000/svg" xmlns:xlink="http://www.w3.org/1999/xlink">
<g id="graph0" class="graph" transform="scale(1 1) rotate(0) translate(4 362)">
<title>dependencies</title>
<polygon fill="white" stroke="transparent" points="-4,4 -4,-362 1762,-362 1762,4 -4,4"/>
<text text-anchor="start" x="858.01" y="-42.4" font-family="Times-12" font-weight="bold" font-size="14.00">Legend</text>
<polygon fill="#ffffb3" stroke="transparent" points="645,-10 645,-30 665,-30 665,-10 645,-10"/>
<text text-anchor="start" x="668.63" y="-15.4" font-family="Times-12" font-size="14.00"> &#160;Declarations</text>
<polygon fill="#8dd3c7" stroke="transparent" points="758,-10 758,-30 778,-30 778,-10 758,-10"/>
<text text-anchor="start" x="781.73" y="-15.4" font-family="Times-12" font-size="14.00"> &#160;Module</text>
<polygon fill="#80b1d3" stroke="transparent" points="844,-10 844,-30 864,-30 864,-10 844,-10"/>
<text text-anchor="start" x="867.78" y="-15.4" font-family="Times-12" font-size="14.00"> &#160;Bootstrap</text>
<polygon fill="#fdb462" stroke="transparent" points="941,-10 941,-30 961,-30 961,-10 941,-10"/>
<text text-anchor="start" x="964.67" y="-15.4" font-family="Times-12" font-size="14.00"> &#160;Providers</text>
<polygon fill="#fb8072" stroke="transparent" points="1037,-10 1037,-30 1057,-30 1057,-10 1037,-10"/>
<text text-anchor="start" x="1060.73" y="-15.4" font-family="Times-12" font-size="14.00"> &#160;Exports</text>
<g id="clust1" class="cluster">
<title>cluster_AppModule</title>
<polygon fill="none" stroke="black" stroke-dasharray="1,5" points="380,-146 380,-274 1158,-274 1158,-146 380,-146"/>
</g>
<g id="clust3" class="cluster">
<title>cluster_AppModule_imports</title>
<polygon fill="none" stroke="black" points="388,-154 388,-206 828,-206 828,-154 388,-154"/>
</g>
<g id="clust6" class="cluster">
<title>cluster_AppModule_providers</title>
<polygon fill="none" stroke="black" points="836,-154 836,-206 1150,-206 1150,-154 836,-154"/>
</g>
<g id="clust7" class="cluster">
<title>cluster_AuthModule</title>
<polygon fill="none" stroke="black" stroke-dasharray="1,5" points="8,-70 8,-138 565,-138 565,-70 8,-70"/>
</g>
<g id="clust10" class="cluster">
<title>cluster_AuthModule_exports</title>
<polygon fill="none" stroke="black" points="451,-78 451,-130 557,-130 557,-78 451,-78"/>
</g>
<g id="clust12" class="cluster">
<title>cluster_AuthModule_providers</title>
<polygon fill="none" stroke="black" points="16,-78 16,-130 443,-130 443,-78 16,-78"/>
</g>
<g id="clust13" class="cluster">
<title>cluster_EncryptionModule</title>
<polygon fill="none" stroke="black" stroke-dasharray="1,5" points="1464,-222 1464,-350 1620,-350 1620,-222 1464,-222"/>
</g>
<g id="clust16" class="cluster">
<title>cluster_EncryptionModule_exports</title>
<polygon fill="none" stroke="black" points="1472,-290 1472,-342 1612,-342 1612,-290 1472,-290"/>
</g>
<g id="clust19" class="cluster">
<title>cluster_PrismaModule</title>
<polygon fill="none" stroke="black" stroke-dasharray="1,5" points="1166,-214 1166,-282 1456,-282 1456,-214 1166,-214"/>
</g>
<g id="clust22" class="cluster">
<title>cluster_PrismaModule_exports</title>
<polygon fill="none" stroke="black" points="1332,-222 1332,-274 1448,-274 1448,-222 1332,-222"/>
</g>
<g id="clust24" class="cluster">
<title>cluster_PrismaModule_providers</title>
<polygon fill="none" stroke="black" points="1174,-222 1174,-274 1324,-274 1324,-222 1174,-222"/>
</g>
<g id="clust25" class="cluster">
<title>cluster_ProfileModule</title>
<polygon fill="none" stroke="black" stroke-dasharray="1,5" points="573,-70 573,-138 737,-138 737,-70 573,-70"/>
</g>
<g id="clust30" class="cluster">
<title>cluster_ProfileModule_providers</title>
<polygon fill="none" stroke="black" points="581,-78 581,-130 729,-130 729,-78 581,-78"/>
</g>
<g id="clust31" class="cluster">
<title>cluster_SecurityModule</title>
<polygon fill="none" stroke="black" stroke-dasharray="1,5" points="1628,-222 1628,-274 1750,-274 1750,-222 1628,-222"/>
</g>
<g id="clust37" class="cluster">
<title>cluster_UserModule</title>
<polygon fill="none" stroke="black" stroke-dasharray="1,5" points="745,-70 745,-138 893,-138 893,-70 745,-70"/>
</g>
<g id="clust42" class="cluster">
<title>cluster_UserModule_providers</title>
<polygon fill="none" stroke="black" points="753,-78 753,-130 885,-130 885,-78 753,-78"/>
</g>
<!-- AuthModule -->
<g id="node1" class="node">
<title>AuthModule</title>
<polygon fill="#8dd3c7" stroke="black" points="483.55,-198 480.55,-202 459.55,-202 456.55,-198 396.45,-198 396.45,-162 483.55,-162 483.55,-198"/>
<text text-anchor="middle" x="440" y="-175.8" font-family="Times,serif" font-size="14.00">AuthModule</text>
</g>
<!-- AppModule -->
<g id="node5" class="node">
<title>AppModule</title>
<polygon fill="#8dd3c7" stroke="black" points="757.66,-266 754.66,-270 733.66,-270 730.66,-266 674.34,-266 674.34,-230 757.66,-230 757.66,-266"/>
<text text-anchor="middle" x="716" y="-243.8" font-family="Times,serif" font-size="14.00">AppModule</text>
</g>
<!-- AuthModule&#45;&gt;AppModule -->
<g id="edge1" class="edge">
<title>AuthModule&#45;&gt;AppModule</title>
<path fill="none" stroke="black" d="M440,-198.29C440,-220.21 440,-254 440,-254 440,-254 664.08,-254 664.08,-254"/>
<polygon fill="black" stroke="black" points="664.08,-257.5 674.08,-254 664.08,-250.5 664.08,-257.5"/>
</g>
<!-- AuthService  -->
<g id="node8" class="node">
<title>AuthService </title>
<polygon fill="#fb8072" stroke="black" points="548.98,-122 459.02,-122 459.02,-86 548.98,-86 548.98,-122"/>
<text text-anchor="middle" x="504" y="-99.8" font-family="Times,serif" font-size="14.00">AuthService </text>
</g>
<!-- AuthModule&#45;&gt;AuthService  -->
<g id="edge7" class="edge">
<title>AuthModule&#45;&gt;AuthService </title>
<path fill="none" stroke="black" stroke-dasharray="5,2" d="M471.52,-161.99C471.52,-161.99 471.52,-132.15 471.52,-132.15"/>
<polygon fill="black" stroke="black" points="475.02,-132.15 471.52,-122.15 468.02,-132.15 475.02,-132.15"/>
</g>
<!-- PrismaModule -->
<g id="node2" class="node">
<title>PrismaModule</title>
<polygon fill="#8dd3c7" stroke="black" points="820.43,-198 817.43,-202 796.43,-202 793.43,-198 721.57,-198 721.57,-162 820.43,-162 820.43,-198"/>
<text text-anchor="middle" x="771" y="-175.8" font-family="Times,serif" font-size="14.00">PrismaModule</text>
</g>
<!-- PrismaModule&#45;&gt;AppModule -->
<g id="edge2" class="edge">
<title>PrismaModule&#45;&gt;AppModule</title>
<path fill="none" stroke="black" d="M739.81,-198.22C739.81,-198.22 739.81,-219.73 739.81,-219.73"/>
<polygon fill="black" stroke="black" points="736.31,-219.73 739.81,-229.73 743.31,-219.73 736.31,-219.73"/>
</g>
<!-- PrismaService  -->
<g id="node14" class="node">
<title>PrismaService </title>
<polygon fill="#fb8072" stroke="black" points="1440.36,-266 1339.64,-266 1339.64,-230 1440.36,-230 1440.36,-266"/>
<text text-anchor="middle" x="1390" y="-243.8" font-family="Times,serif" font-size="14.00">PrismaService </text>
</g>
<!-- PrismaModule&#45;&gt;PrismaService  -->
<g id="edge14" class="edge">
<title>PrismaModule&#45;&gt;PrismaService </title>
<path fill="none" stroke="black" stroke-dasharray="5,2" d="M789.02,-198.13C789.02,-208.71 789.02,-220 789.02,-220 789.02,-220 1390,-220 1390,-220 1390,-220 1390,-220.98 1390,-220.98"/>
<polygon fill="black" stroke="black" points="1386.5,-219.79 1390,-229.79 1393.5,-219.79 1386.5,-219.79"/>
</g>
<!-- ProfileModule -->
<g id="node3" class="node">
<title>ProfileModule</title>
<polygon fill="#8dd3c7" stroke="black" points="599.65,-198 596.65,-202 575.65,-202 572.65,-198 502.35,-198 502.35,-162 599.65,-162 599.65,-198"/>
<text text-anchor="middle" x="551" y="-175.8" font-family="Times,serif" font-size="14.00">ProfileModule</text>
</g>
<!-- ProfileModule&#45;&gt;AppModule -->
<g id="edge3" class="edge">
<title>ProfileModule&#45;&gt;AppModule</title>
<path fill="none" stroke="black" d="M551,-198.27C551,-216.56 551,-242 551,-242 551,-242 663.94,-242 663.94,-242"/>
<polygon fill="black" stroke="black" points="663.94,-245.5 673.94,-242 663.94,-238.5 663.94,-245.5"/>
</g>
<!-- UserModule -->
<g id="node4" class="node">
<title>UserModule</title>
<polygon fill="#8dd3c7" stroke="black" points="703.98,-198 700.98,-202 679.98,-202 676.98,-198 618.02,-198 618.02,-162 703.98,-162 703.98,-198"/>
<text text-anchor="middle" x="661" y="-175.8" font-family="Times,serif" font-size="14.00">UserModule</text>
</g>
<!-- UserModule&#45;&gt;AppModule -->
<g id="edge4" class="edge">
<title>UserModule&#45;&gt;AppModule</title>
<path fill="none" stroke="black" d="M689.08,-198.22C689.08,-198.22 689.08,-219.73 689.08,-219.73"/>
<polygon fill="black" stroke="black" points="685.58,-219.73 689.08,-229.73 692.58,-219.73 685.58,-219.73"/>
</g>
<!-- AppService -->
<g id="node6" class="node">
<title>AppService</title>
<ellipse fill="#fdb462" stroke="black" cx="901" cy="-180" rx="56.74" ry="18"/>
<text text-anchor="middle" x="901" y="-175.8" font-family="Times,serif" font-size="14.00">AppService</text>
</g>
<!-- AppService&#45;&gt;AppModule -->
<g id="edge5" class="edge">
<title>AppService&#45;&gt;AppModule</title>
<path fill="none" stroke="black" d="M901,-198.02C901,-215.37 901,-239 901,-239 901,-239 767.98,-239 767.98,-239"/>
<polygon fill="black" stroke="black" points="767.98,-235.5 757.98,-239 767.98,-242.5 767.98,-235.5"/>
</g>
<!-- EncryptionService -->
<g id="node7" class="node">
<title>EncryptionService</title>
<ellipse fill="#fdb462" stroke="black" cx="1059" cy="-180" rx="82.81" ry="18"/>
<text text-anchor="middle" x="1059" y="-175.8" font-family="Times,serif" font-size="14.00">EncryptionService</text>
</g>
<!-- EncryptionService&#45;&gt;AppModule -->
<g id="edge6" class="edge">
<title>EncryptionService&#45;&gt;AppModule</title>
<path fill="none" stroke="black" d="M1059,-198.22C1059,-218.37 1059,-248 1059,-248 1059,-248 767.72,-248 767.72,-248"/>
<polygon fill="black" stroke="black" points="767.72,-244.5 757.72,-248 767.72,-251.5 767.72,-244.5"/>
</g>
<!-- EncryptionModule -->
<g id="node13" class="node">
<title>EncryptionModule</title>
<polygon fill="#8dd3c7" stroke="black" points="1593.76,-266 1590.76,-270 1569.76,-270 1566.76,-266 1472.24,-266 1472.24,-230 1593.76,-230 1593.76,-266"/>
<text text-anchor="middle" x="1533" y="-243.8" font-family="Times,serif" font-size="14.00">EncryptionModule</text>
</g>
<!-- EncryptionService&#45;&gt;EncryptionModule -->
<g id="edge12" class="edge">
<title>EncryptionService&#45;&gt;EncryptionModule</title>
<path fill="none" stroke="black" d="M1137.25,-186C1267.04,-186 1512.71,-186 1512.71,-186 1512.71,-186 1512.71,-219.73 1512.71,-219.73"/>
<polygon fill="black" stroke="black" points="1509.21,-219.73 1512.71,-229.73 1516.21,-219.73 1509.21,-219.73"/>
</g>
<!-- SecurityModule -->
<g id="node17" class="node">
<title>SecurityModule</title>
<polygon fill="#8dd3c7" stroke="black" points="1742.2,-266 1739.2,-270 1718.2,-270 1715.2,-266 1635.8,-266 1635.8,-230 1742.2,-230 1742.2,-266"/>
<text text-anchor="middle" x="1689" y="-243.8" font-family="Times,serif" font-size="14.00">SecurityModule</text>
</g>
<!-- EncryptionService&#45;&gt;SecurityModule -->
<g id="edge18" class="edge">
<title>EncryptionService&#45;&gt;SecurityModule</title>
<path fill="none" stroke="black" d="M1137.2,-174C1305.92,-174 1689,-174 1689,-174 1689,-174 1689,-219.71 1689,-219.71"/>
<polygon fill="black" stroke="black" points="1685.5,-219.71 1689,-229.71 1692.5,-219.71 1685.5,-219.71"/>
</g>
<!-- AuthService -->
<g id="node9" class="node">
<title>AuthService</title>
<ellipse fill="#fdb462" stroke="black" cx="376" cy="-104" rx="59.11" ry="18"/>
<text text-anchor="middle" x="376" y="-99.8" font-family="Times,serif" font-size="14.00">AuthService</text>
</g>
<!-- AuthService&#45;&gt;AuthModule -->
<g id="edge8" class="edge">
<title>AuthService&#45;&gt;AuthModule</title>
<path fill="none" stroke="black" d="M415.77,-117.59C415.77,-117.59 415.77,-151.96 415.77,-151.96"/>
<polygon fill="black" stroke="black" points="412.27,-151.96 415.77,-161.96 419.27,-151.96 412.27,-151.96"/>
</g>
<!-- GoogleStrategy -->
<g id="node10" class="node">
<title>GoogleStrategy</title>
<ellipse fill="#fdb462" stroke="black" cx="227" cy="-104" rx="71.79" ry="18"/>
<text text-anchor="middle" x="227" y="-99.8" font-family="Times,serif" font-size="14.00">GoogleStrategy</text>
</g>
<!-- GoogleStrategy&#45;&gt;AuthModule -->
<g id="edge9" class="edge">
<title>GoogleStrategy&#45;&gt;AuthModule</title>
<path fill="none" stroke="black" d="M227,-122.03C227,-142.77 227,-174 227,-174 227,-174 386.38,-174 386.38,-174"/>
<polygon fill="black" stroke="black" points="386.38,-177.5 396.38,-174 386.38,-170.5 386.38,-177.5"/>
</g>
<!-- JwtStrategy -->
<g id="node11" class="node">
<title>JwtStrategy</title>
<ellipse fill="#fdb462" stroke="black" cx="81" cy="-104" rx="56.76" ry="18"/>
<text text-anchor="middle" x="81" y="-99.8" font-family="Times,serif" font-size="14.00">JwtStrategy</text>
</g>
<!-- JwtStrategy&#45;&gt;AuthModule -->
<g id="edge10" class="edge">
<title>JwtStrategy&#45;&gt;AuthModule</title>
<path fill="none" stroke="black" d="M81,-122.2C81,-146.36 81,-186 81,-186 81,-186 386.34,-186 386.34,-186"/>
<polygon fill="black" stroke="black" points="386.34,-189.5 396.34,-186 386.34,-182.5 386.34,-189.5"/>
</g>
<!-- EncryptionService  -->
<g id="node12" class="node">
<title>EncryptionService </title>
<polygon fill="#fb8072" stroke="black" points="1603.69,-334 1480.31,-334 1480.31,-298 1603.69,-298 1603.69,-334"/>
<text text-anchor="middle" x="1542" y="-311.8" font-family="Times,serif" font-size="14.00">EncryptionService </text>
</g>
<!-- EncryptionModule&#45;&gt;PrismaModule -->
<g id="edge13" class="edge">
<title>EncryptionModule&#45;&gt;PrismaModule</title>
<path fill="none" stroke="black" d="M1553.29,-229.87C1553.29,-219.69 1553.29,-209 1553.29,-209 1553.29,-209 773.43,-209 773.43,-209 773.43,-209 773.43,-207.92 773.43,-207.92"/>
<polygon fill="black" stroke="black" points="776.93,-208.2 773.43,-198.2 769.93,-208.2 776.93,-208.2"/>
</g>
<!-- EncryptionModule&#45;&gt;EncryptionService  -->
<g id="edge11" class="edge">
<title>EncryptionModule&#45;&gt;EncryptionService </title>
<path fill="none" stroke="black" stroke-dasharray="5,2" d="M1537.02,-266.22C1537.02,-266.22 1537.02,-287.73 1537.02,-287.73"/>
<polygon fill="black" stroke="black" points="1533.52,-287.73 1537.02,-297.73 1540.52,-287.73 1533.52,-287.73"/>
</g>
<!-- PrismaService -->
<g id="node15" class="node">
<title>PrismaService</title>
<ellipse fill="#fdb462" stroke="black" cx="1249" cy="-248" rx="66.63" ry="18"/>
<text text-anchor="middle" x="1249" y="-243.8" font-family="Times,serif" font-size="14.00">PrismaService</text>
</g>
<!-- PrismaService&#45;&gt;PrismaModule -->
<g id="edge15" class="edge">
<title>PrismaService&#45;&gt;PrismaModule</title>
<path fill="none" stroke="black" d="M1190.91,-257C1070.45,-257 804.62,-257 804.62,-257 804.62,-257 804.62,-208.25 804.62,-208.25"/>
<polygon fill="black" stroke="black" points="808.12,-208.25 804.62,-198.25 801.12,-208.25 808.12,-208.25"/>
</g>
<!-- ProfileService -->
<g id="node16" class="node">
<title>ProfileService</title>
<ellipse fill="#fdb462" stroke="black" cx="655" cy="-104" rx="66.05" ry="18"/>
<text text-anchor="middle" x="655" y="-99.8" font-family="Times,serif" font-size="14.00">ProfileService</text>
</g>
<!-- ProfileService&#45;&gt;ProfileModule -->
<g id="edge16" class="edge">
<title>ProfileService&#45;&gt;ProfileModule</title>
<path fill="none" stroke="black" d="M594.28,-111.29C594.28,-111.29 594.28,-151.73 594.28,-151.73"/>
<polygon fill="black" stroke="black" points="590.78,-151.73 594.28,-161.73 597.78,-151.73 590.78,-151.73"/>
</g>
<!-- SecurityModule&#45;&gt;EncryptionService  -->
<g id="edge17" class="edge">
<title>SecurityModule&#45;&gt;EncryptionService </title>
<path fill="none" stroke="black" stroke-dasharray="5,2" d="M1635.78,-248C1616.27,-248 1598.86,-248 1598.86,-248 1598.86,-248 1598.86,-287.78 1598.86,-287.78"/>
<polygon fill="black" stroke="black" points="1595.36,-287.78 1598.86,-297.78 1602.36,-287.78 1595.36,-287.78"/>
</g>
<!-- UserService -->
<g id="node18" class="node">
<title>UserService</title>
<ellipse fill="#fdb462" stroke="black" cx="819" cy="-104" rx="58.44" ry="18"/>
<text text-anchor="middle" x="819" y="-99.8" font-family="Times,serif" font-size="14.00">UserService</text>
</g>
<!-- UserService&#45;&gt;UserModule -->
<g id="edge19" class="edge">
<title>UserService&#45;&gt;UserModule</title>
<path fill="none" stroke="black" d="M790.5,-119.9C790.5,-130.31 790.5,-142 790.5,-142 790.5,-142 661,-142 661,-142 661,-142 661,-151.89 661,-151.89"/>
<polygon fill="black" stroke="black" points="657.5,-151.89 661,-161.89 664.5,-151.89 657.5,-151.89"/>
</g>
</g>
</svg>
